{"title":"Stalingrad 2013 BRRip 720p x264 AAC ","uid":9326365,"size":797499740,"categoryP":"video","categoryS":"hd___movies","magnet":"?xt=urn:btih:f167bc83ac38fb91fb9e488e8053dee3d0a0cc07&amp;dn=Stalingrad+2013+BRRip+720p+x264+AAC+&amp;tr=udp%3A%2F%2Ftracker.openbittorrent.com%3A80&amp;tr=udp%3A%2F%2Fopen.demonii.com%3A1337&amp;tr=udp%3A%2F%2Ftracker.coppersurfer.tk%3A6969&amp;tr=udp%3A%2F%2Fexodus.desync.com%3A6969","seeders":4,"leechers":0,"uploader":"darkj6","files":5,"time":1386646569,"description":" ______   _______  ______    ___   _      ___  --------|\n|      | |   _   ||    _ |  |   | | |    |   ||   |----|    \n|  _    ||  |_|  ||   | ||  |   |_| |    |   ||   |___ \n| | |   ||       ||   |_||_ |      _|    |   ||    _  |\n| |_|   ||       ||    __  ||     |_  ___|   ||   | | |\n|       ||   _   ||   |  | ||    _  ||       ||   |_| |\n|______| |__| |__||___|  |_||___| |_||_______||_______|\n\n\nFormat                         : MPEG-4\nFile size                      : 752 MiB\nDuration                       : 2h 10mn\nOverall bit rate               : 804 Kbps\n\nVideo\nFormat                         : AVC\nBit rate                       : 721 Kbps\nWidth                          : 1 280 pixels\nHeight                         : 528 pixels\nDisplay aspect ratio           : 2.40:1\nFrame rate mode                : Constant\nFrame rate                     : 23.976 fps\nBit depth                      : 10 bits\nStream size                    : 674 MiB (90%)\nWriting library                : x264 core 140 r2377\n\nAudio\nFormat                         : AAC\nBit rate mode                  : Variable\nBit rate                       : 80.0 Kbps\nChannel count                  : 2 channels\nChannel positions              : Front: L R\nSampling rate                  : 48.0 KHz\nStream size                    : 74.8 MiB (10%)\nLanguage                       : Russian\n\nSubtitle                       : Yes (English)\n\nSource                         : 720p.BluRay.DTS.x264-TayTO\n\n &lt;a href=&quot;\nhttp://someimage.com/qpFM5cv&quot; rel=&quot;nofollow&quot; target=&quot;_NEW&quot;&gt;\nhttp://someimage.com/qpFM5cv&lt;/a&gt;\n\n &lt;a href=&quot;\nhttp://someimage.com/gp9umep&quot; rel=&quot;nofollow&quot; target=&quot;_NEW&quot;&gt;\nhttp://someimage.com/gp9umep&lt;/a&gt;\n\n &lt;a href=&quot;\nhttp://someimage.com/kFeKz9m&quot; rel=&quot;nofollow&quot; target=&quot;_NEW&quot;&gt;\nhttp://someimage.com/kFeKz9m&lt;/a&gt;\n\n &lt;a href=&quot;\nhttp://someimage.com/wsI4i8P&quot; rel=&quot;nofollow&quot; target=&quot;_NEW&quot;&gt;\nhttp://someimage.com/wsI4i8P&lt;/a&gt;\n\n &lt;a href=&quot;\nhttp://someimage.com/zs0QHvt&quot; rel=&quot;nofollow&quot; target=&quot;_NEW&quot;&gt;\nhttp://someimage.com/zs0QHvt&lt;/a&gt;\n\n &lt;a href=&quot;\nhttp://someimage.com/DyOJNO4&quot; rel=&quot;nofollow&quot; target=&quot;_NEW&quot;&gt;\nhttp://someimage.com/DyOJNO4&lt;/a&gt;\n\n &lt;a href=&quot;\nhttp://someimage.com/0SkbooL&quot; rel=&quot;nofollow&quot; target=&quot;_NEW&quot;&gt;\nhttp://someimage.com/0SkbooL&lt;/a&gt;\n\n &lt;a href=&quot;\nhttp://someimage.com/OoXaGv5&quot; rel=&quot;nofollow&quot; target=&quot;_NEW&quot;&gt;\nhttp://someimage.com/OoXaGv5&lt;/a&gt;\n\n &lt;a href=&quot;\nhttp://someimage.com/PuKeMBV&quot; rel=&quot;nofollow&quot; target=&quot;_NEW&quot;&gt;\nhttp://someimage.com/PuKeMBV&lt;/a&gt;\n\n &lt;a href=&quot;\nhttp://someimage.com/jWeNlTn&quot; rel=&quot;nofollow&quot; target=&quot;_NEW&quot;&gt;\nhttp://someimage.com/jWeNlTn&lt;/a&gt;","torrent":{"xt":"urn:btih:f167bc83ac38fb91fb9e488e8053dee3d0a0cc07","amp;dn":"Stalingrad+2013+BRRip+720p+x264+AAC+","amp;tr":["udp%3A%2F%2Ftracker.openbittorrent.com%3A80","udp%3A%2F%2Fopen.demonii.com%3A1337","udp%3A%2F%2Ftracker.coppersurfer.tk%3A6969","udp%3A%2F%2Fexodus.desync.com%3A6969"],"infoHash":"f167bc83ac38fb91fb9e488e8053dee3d0a0cc07","infoHashBuffer":{"type":"Buffer","data":[241,103,188,131,172,56,251,145,251,158,72,142,128,83,222,227,208,160,204,7]},"announce":[],"urlList":[]}}